<?xml version="1.0" standalone="no"?>
<!DOCTYPE svg PUBLIC "-//W3C//DTD SVG 20010904//EN"
 "http://www.w3.org/TR/2001/REC-SVG-20010904/DTD/svg10.dtd">
<svg version="1.0" xmlns="http://www.w3.org/2000/svg"
 width="1668.000000pt" height="2224.000000pt" viewBox="0 0 1668.000000 2224.000000"
 preserveAspectRatio="xMidYMid meet">
<metadata>
Created by potrace 1.16, written by Peter Selinger 2001-2019
</metadata>
<g transform="translate(0.000000,2224.000000) scale(0.100000,-0.100000)"
fill="#000000" stroke="none">
<path d="M7650 11984 c-14 -2 -79 -11 -145 -20 -66 -9 -124 -20 -129 -25 -6
-5 -28 -9 -51 -9 -23 0 -45 -4 -51 -10 -5 -5 -38 -13 -72 -16 -34 -4 -62 -11
-62 -15 0 -5 -11 -9 -25 -9 -14 0 -25 -4 -25 -9 0 -5 -25 -12 -55 -16 -30 -3
-55 -10 -55 -15 0 -5 -20 -12 -45 -16 -25 -3 -45 -10 -45 -15 0 -5 -11 -9 -25
-9 -14 0 -25 -4 -25 -9 0 -5 -14 -12 -31 -16 -17 -4 -42 -13 -57 -21 -15 -8
-33 -14 -40 -14 -12 0 -51 -19 -62 -30 -3 -3 -26 -15 -52 -28 -26 -13 -50 -27
-53 -33 -4 -5 -13 -9 -22 -9 -9 0 -30 -10 -47 -23 -17 -12 -51 -33 -76 -45
-63 -32 -84 -45 -93 -59 -4 -7 -13 -13 -19 -13 -5 0 -32 -18 -58 -40 -26 -22
-51 -40 -55 -40 -4 0 -36 -25 -70 -55 -35 -30 -67 -55 -72 -55 -5 0 -37 -29
-71 -65 -34 -36 -65 -65 -70 -65 -11 0 -92 -84 -92 -96 0 -5 -29 -39 -65 -74
-36 -35 -65 -70 -65 -76 0 -6 -13 -22 -28 -35 -16 -13 -32 -31 -35 -39 -4 -8
-21 -33 -37 -55 -45 -59 -110 -156 -110 -162 0 -4 -8 -15 -17 -26 -19 -21 -37
-53 -125 -230 -32 -63 -58 -119 -58 -125 0 -5 -8 -24 -17 -43 -10 -19 -18 -38
-19 -44 -3 -26 -17 -55 -26 -55 -5 0 -8 -8 -7 -17 2 -16 -1 -29 -19 -73 -3 -8
-7 -19 -7 -25 -2 -11 -11 -37 -25 -70 -5 -11 -12 -38 -15 -60 -4 -22 -10 -44
-15 -50 -4 -5 -11 -37 -15 -70 -4 -33 -10 -64 -15 -70 -4 -5 -10 -37 -14 -70
-4 -33 -11 -85 -16 -115 -26 -155 -19 -739 9 -813 6 -16 14 -59 17 -98 4 -38
11 -69 15 -69 5 0 9 -13 9 -29 0 -17 4 -32 9 -35 4 -3 11 -31 14 -63 3 -32 11
-59 17 -61 5 -2 10 -17 10 -32 0 -16 4 -31 10 -35 5 -3 7 -12 4 -19 -3 -8 -1
-17 5 -21 6 -3 11 -17 11 -31 0 -13 4 -24 9 -24 5 0 12 -20 15 -45 4 -25 11
-45 15 -45 8 0 17 -20 26 -55 8 -33 18 -55 26 -55 5 0 9 -8 9 -19 0 -19 100
-222 124 -251 7 -8 21 -33 31 -55 11 -22 34 -59 52 -82 18 -23 33 -45 33 -49
0 -4 18 -29 40 -55 22 -26 40 -51 40 -56 0 -4 25 -36 55 -70 30 -33 55 -65 55
-70 0 -6 27 -35 60 -66 33 -30 60 -59 60 -64 0 -12 93 -103 106 -103 5 0 36
-27 69 -60 33 -33 64 -60 71 -60 6 0 22 -12 37 -27 24 -27 54 -51 102 -83 12
-8 48 -33 80 -55 102 -70 109 -74 160 -100 28 -15 64 -33 80 -42 17 -9 44 -23
60 -31 17 -8 58 -30 93 -49 35 -18 69 -33 75 -33 7 0 24 -6 39 -14 15 -8 40
-17 57 -21 17 -4 31 -10 31 -15 0 -4 20 -11 45 -14 24 -4 47 -11 50 -15 2 -5
22 -12 42 -16 21 -4 43 -10 48 -15 6 -4 31 -11 57 -14 26 -4 50 -11 53 -15 2
-5 36 -11 75 -15 38 -4 70 -11 70 -17 0 -5 13 -9 29 -9 15 0 41 -4 57 -10 45
-14 301 -30 507 -31 184 -1 418 21 459 42 10 5 36 9 58 9 22 0 40 4 40 9 0 6
32 13 70 17 39 3 70 11 70 15 0 5 11 9 24 9 14 0 27 4 30 9 3 5 26 12 51 15
24 4 47 11 50 16 3 4 23 11 45 15 22 4 42 11 46 16 3 5 16 9 30 9 13 0 24 4
24 9 0 5 12 12 28 15 15 4 40 12 57 19 47 19 277 136 294 150 9 7 34 21 56 32
22 10 56 32 76 47 20 15 40 28 44 28 4 0 29 18 55 40 26 22 52 40 57 40 5 0
20 11 33 25 13 14 27 25 31 25 8 0 46 34 144 128 36 34 69 62 73 62 11 0 92
83 92 95 0 6 29 40 65 75 36 35 65 70 65 76 0 7 13 23 28 36 15 13 31 30 35
38 4 8 23 35 42 60 19 25 39 55 45 68 5 12 14 22 19 22 5 0 11 8 15 18 3 9 15
31 26 47 11 17 23 38 26 48 4 9 10 17 14 17 7 0 12 12 19 45 1 6 10 19 20 30
20 22 121 226 121 244 0 6 9 26 19 45 11 19 17 36 15 39 -3 2 4 21 15 41 12
20 20 40 19 44 -1 8 9 39 21 62 5 9 12 31 16 50 4 19 11 40 15 45 4 6 10 30
14 55 4 24 11 49 15 55 5 5 11 37 15 69 4 33 10 64 15 70 5 6 12 49 16 96 4
47 11 90 15 95 4 6 10 51 12 100 7 128 -10 676 -21 689 -5 6 -12 50 -16 99 -4
48 -11 90 -16 93 -5 3 -9 18 -9 35 0 16 -4 29 -9 29 -4 0 -11 25 -14 56 -3 31
-11 62 -16 67 -6 6 -11 21 -11 33 0 13 -4 25 -10 29 -5 3 -7 12 -4 19 3 8 1
17 -5 21 -6 3 -11 17 -11 31 0 13 -4 24 -9 24 -5 0 -12 20 -15 45 -4 25 -11
45 -15 45 -8 0 -22 30 -25 55 -4 25 -133 289 -157 319 -8 12 -26 41 -38 66
-26 53 -40 77 -61 101 -8 10 -33 43 -55 74 -22 31 -62 84 -90 117 -27 33 -55
69 -61 80 -7 11 -34 43 -62 71 -27 29 -73 78 -102 110 -29 31 -58 57 -64 57
-7 0 -38 27 -71 60 -33 33 -64 60 -70 60 -6 0 -22 13 -35 30 -14 16 -29 29
-34 30 -6 0 -20 10 -32 21 -13 12 -32 27 -42 33 -11 6 -48 31 -83 56 -79 55
-91 63 -156 95 -29 14 -53 30 -53 35 0 6 -6 10 -12 10 -7 0 -62 25 -123 55
-60 30 -114 55 -120 55 -5 0 -22 6 -37 14 -15 8 -40 17 -57 21 -17 4 -31 10
-31 15 0 4 -20 11 -45 14 -24 4 -47 11 -50 15 -2 5 -22 12 -42 16 -21 4 -42
10 -48 15 -5 4 -31 11 -57 14 -26 4 -50 11 -53 15 -2 5 -36 11 -75 15 -38 4
-70 11 -70 16 0 4 -17 10 -37 13 -21 3 -72 10 -113 16 -166 25 -243 31 -420
30 -102 -1 -196 -3 -210 -5z m480 -107 c118 -7 194 -31 161 -51 -4 -3 -11 -40
-15 -83 -4 -43 -11 -82 -16 -88 -5 -6 -12 -48 -16 -93 -4 -45 -10 -82 -14 -82
-4 0 -11 -33 -15 -72 -3 -40 -10 -77 -15 -83 -4 -5 -11 -44 -15 -85 -3 -41
-10 -79 -13 -85 -4 -5 -12 -41 -19 -80 -6 -38 -15 -88 -20 -110 l-8 -40 -245
-3 -245 -2 -12 27 c-7 15 -13 42 -13 60 0 18 -4 33 -9 33 -5 0 -12 34 -16 75
-4 41 -11 77 -16 81 -5 3 -9 20 -9 39 0 19 -4 36 -9 40 -5 3 -13 41 -17 85 -3
44 -11 83 -15 86 -5 3 -9 20 -9 39 0 19 -4 36 -9 39 -5 4 -12 40 -16 81 -4 41
-11 75 -16 75 -5 0 -9 18 -9 39 0 22 -5 43 -10 46 -7 4 -7 12 0 25 5 10 10 27
10 38 0 19 8 23 115 48 41 10 457 21 470 12 6 -3 44 -8 85 -11z m-782 -81 c6
-3 13 -37 17 -76 4 -39 11 -73 16 -76 5 -3 9 -23 9 -45 0 -21 4 -39 9 -39 5 0
12 -34 16 -75 4 -41 11 -77 16 -81 5 -3 9 -25 9 -50 0 -24 4 -44 9 -44 5 0 12
-34 16 -75 4 -41 11 -77 16 -81 5 -3 9 -20 9 -38 0 -17 4 -36 9 -42 5 -5 13
-41 16 -80 l7 -72 -313 -7 c-173 -3 -393 -5 -489 -3 l-175 3 -3 68 c-2 38 1
74 7 80 5 7 12 76 16 155 4 78 12 145 16 148 5 3 9 36 9 73 0 49 4 72 15 81 8
7 15 25 15 41 0 25 8 31 68 59 37 18 79 38 94 46 14 8 33 14 41 14 9 0 28 6
44 14 27 14 56 26 98 42 11 4 25 6 32 5 6 -1 14 3 18 9 3 5 17 10 31 10 13 0
24 4 24 9 0 5 22 11 50 15 27 4 52 11 55 16 3 6 21 10 39 10 17 0 36 4 42 9
17 18 69 17 76 0 4 -10 11 -20 16 -23z m1106 35 c3 -4 33 -11 66 -15 33 -4 60
-11 60 -15 0 -5 22 -11 50 -15 27 -4 52 -11 55 -16 3 -6 17 -10 30 -10 13 0
26 -4 30 -10 3 -5 12 -7 19 -4 8 3 17 1 21 -5 3 -6 13 -11 22 -11 15 0 65 -19
116 -46 16 -8 33 -14 39 -14 27 0 148 -66 148 -81 0 -9 9 -24 19 -33 15 -14
21 -38 26 -112 4 -52 11 -97 16 -100 5 -3 9 -27 9 -54 0 -27 4 -51 9 -55 5 -3
13 -50 16 -105 4 -55 11 -100 16 -100 11 0 12 -87 1 -94 -9 -6 -982 -10 -986
-4 -6 7 15 164 24 180 5 9 12 53 16 97 4 45 10 81 14 81 4 0 11 34 15 75 4 41
11 78 17 81 5 3 8 23 7 45 -2 21 0 41 4 45 4 4 7 24 7 45 0 21 5 41 11 45 6 3
9 19 5 35 -3 15 -1 31 4 34 6 3 10 26 10 50 0 24 5 47 10 50 6 3 10 15 10 26
0 14 7 19 29 19 17 0 32 -4 35 -9z m829 -318 c18 -10 48 -30 67 -44 19 -14 42
-29 50 -33 41 -19 151 -101 158 -119 2 -4 7 -5 11 -2 4 2 23 -11 41 -30 19
-19 39 -35 45 -35 6 0 37 -27 70 -60 33 -33 64 -60 70 -60 12 0 45 -36 45 -49
0 -4 29 -36 65 -70 36 -35 65 -66 65 -70 0 -4 14 -20 30 -36 17 -16 30 -33 30
-38 0 -5 23 -35 50 -67 28 -32 50 -61 50 -65 0 -4 14 -24 30 -45 17 -21 30
-43 30 -49 0 -6 4 -11 10 -11 5 0 21 -24 35 -52 14 -29 35 -69 47 -88 41 -67
117 -222 123 -251 4 -16 11 -29 16 -29 5 0 9 -9 9 -21 0 -11 7 -35 16 -52 31
-59 34 -66 40 -107 4 -22 10 -40 14 -40 5 0 11 -19 15 -42 6 -39 15 -68 35
-108 4 -9 11 -44 15 -78 4 -34 11 -65 16 -68 5 -3 9 -24 9 -48 0 -23 4 -46 10
-52 5 -5 12 -57 16 -114 3 -58 10 -115 16 -127 14 -28 4 -539 -10 -556 -6 -7
-13 -51 -17 -100 -4 -48 -11 -90 -15 -92 -5 -3 -12 -34 -15 -70 -4 -36 -11
-68 -16 -71 -5 -2 -11 -27 -15 -55 -4 -27 -10 -52 -15 -54 -4 -3 -11 -26 -15
-50 -3 -25 -10 -45 -14 -45 -4 0 -10 -17 -14 -39 -3 -21 -13 -51 -21 -67 -8
-16 -15 -34 -15 -41 0 -6 -6 -24 -14 -40 -8 -15 -22 -46 -32 -68 -36 -86 -121
-254 -135 -265 -4 -3 -10 -16 -14 -30 -4 -14 -13 -32 -20 -40 -23 -28 -85
-120 -85 -126 0 -4 -20 -31 -45 -60 -25 -28 -45 -56 -45 -61 0 -5 -13 -22 -30
-38 -16 -16 -30 -34 -30 -40 0 -6 -25 -35 -56 -65 -30 -30 -64 -70 -75 -87
-12 -18 -25 -33 -31 -33 -5 0 -55 -43 -111 -95 -56 -52 -105 -95 -110 -95 -5
0 -35 -22 -67 -50 -32 -27 -61 -50 -65 -50 -4 0 -24 -13 -45 -30 -21 -17 -41
-30 -45 -30 -3 0 -21 -11 -38 -24 -18 -13 -41 -26 -52 -30 -19 -5 -20 -2 -17
37 3 23 8 47 12 52 5 6 12 54 16 108 4 53 10 97 14 97 4 0 11 43 15 95 4 52
10 95 14 95 5 0 12 39 17 87 8 74 12 89 30 98 24 12 208 202 243 251 13 19 27
34 31 34 4 0 10 8 14 18 6 20 20 43 57 92 14 19 33 52 43 73 9 20 20 37 24 37
8 0 42 74 42 90 0 6 4 10 9 10 5 0 13 14 16 32 4 17 18 51 31 76 13 25 24 52
24 61 0 9 7 26 15 38 8 11 17 39 21 62 4 22 10 41 15 41 5 0 9 13 9 29 0 17 5
33 10 36 6 4 10 12 9 18 -1 7 0 19 4 27 9 25 19 73 20 105 1 17 5 35 9 41 4 6
10 49 14 95 4 46 11 87 17 90 15 10 23 605 8 623 -8 9 -13 60 -14 140 -1 91
-5 127 -14 131 -7 2 -13 15 -13 29 0 14 -4 27 -9 30 -4 3 -11 33 -15 65 -4 33
-11 63 -16 66 -6 4 -10 17 -10 31 0 13 -4 24 -9 24 -5 0 -11 22 -15 50 -4 27
-10 52 -15 54 -5 3 -12 22 -15 41 -4 19 -11 35 -16 35 -6 0 -10 8 -10 17 0 17
-17 56 -87 198 -35 72 -54 106 -63 115 -10 10 -31 45 -36 63 -4 9 -10 17 -15
17 -6 0 -13 8 -16 18 -10 27 -46 74 -75 100 -16 13 -28 29 -28 36 0 14 -198
210 -220 218 -9 3 -21 18 -29 34 -7 16 -17 37 -22 46 -5 10 -9 36 -9 57 0 22
-4 43 -10 46 -5 3 -10 31 -10 61 0 30 -4 54 -9 54 -5 0 -13 45 -16 100 -4 55
-11 100 -16 100 -5 0 -9 24 -9 54 0 30 -4 58 -10 61 -13 8 -13 35 1 35 6 0 25
-8 42 -17z m-2785 -52 c2 -23 -1 -48 -6 -54 -6 -7 -13 -76 -17 -155 -4 -78
-12 -145 -17 -148 -5 -3 -6 -29 -3 -59 5 -36 3 -60 -6 -76 -7 -13 -12 -33 -10
-45 1 -14 -14 -37 -46 -67 -26 -26 -52 -47 -56 -47 -11 0 -57 -47 -163 -165
-91 -102 -107 -123 -124 -162 -5 -13 -14 -23 -19 -23 -5 0 -11 -8 -15 -17 -3
-10 -18 -38 -32 -63 -43 -73 -134 -253 -134 -264 0 -6 -6 -23 -14 -38 -8 -15
-17 -42 -21 -60 -4 -18 -11 -37 -15 -43 -4 -5 -11 -29 -15 -52 -4 -24 -10 -43
-15 -43 -4 0 -10 -27 -14 -60 -4 -33 -11 -62 -15 -65 -5 -3 -12 -33 -16 -67
-4 -35 -11 -68 -15 -73 -5 -6 -12 -65 -16 -133 -4 -68 -11 -122 -17 -122 -6 0
-7 -82 -3 -227 7 -265 14 -374 27 -387 5 -6 9 -34 9 -62 0 -29 4 -55 9 -58 5
-3 12 -35 16 -71 3 -36 10 -65 15 -65 4 0 11 -25 15 -57 4 -31 11 -64 16 -75
5 -10 13 -26 18 -36 5 -10 12 -33 16 -52 8 -36 11 -44 39 -97 9 -17 16 -41 16
-52 0 -12 4 -21 9 -21 5 0 12 -12 16 -27 3 -15 10 -30 13 -33 4 -3 22 -34 40
-70 42 -80 77 -140 88 -149 11 -7 31 -39 43 -67 5 -11 32 -45 60 -76 28 -31
51 -58 51 -61 0 -7 138 -140 195 -188 22 -19 42 -37 45 -40 3 -3 13 -8 23 -12
12 -4 17 -17 17 -41 0 -19 5 -38 10 -41 6 -3 10 -39 10 -79 0 -40 3 -76 8 -80
4 -4 13 -76 20 -159 7 -84 15 -176 18 -204 5 -49 4 -53 -15 -53 -12 0 -21 4
-21 10 0 5 -3 9 -7 8 -14 -2 -47 14 -83 42 -19 15 -42 30 -50 33 -27 12 -54
31 -111 80 -31 26 -61 47 -66 47 -5 0 -22 14 -38 30 -16 17 -34 30 -40 30 -6
0 -35 25 -65 56 -30 30 -70 64 -87 75 -18 12 -33 25 -33 31 0 5 -43 55 -95
111 -52 56 -95 107 -95 114 0 6 -10 20 -22 30 -13 10 -29 28 -36 38 -7 11 -22
35 -33 52 -12 18 -25 33 -29 33 -4 0 -11 8 -14 18 -7 19 -21 43 -51 87 -12 17
-26 41 -33 55 -7 14 -23 43 -37 65 -31 51 -109 207 -110 220 0 6 -8 28 -18 50
-10 22 -25 56 -34 75 -8 19 -19 43 -24 52 -5 9 -12 35 -15 58 -4 22 -10 40
-14 40 -4 0 -11 21 -15 46 -4 26 -11 55 -16 65 -5 11 -13 27 -18 37 -5 10 -12
46 -16 80 -4 34 -11 65 -16 68 -5 3 -9 25 -9 49 0 24 -4 46 -8 49 -5 3 -7 21
-6 40 2 20 -1 38 -6 41 -6 4 -10 39 -10 80 0 45 -5 77 -12 81 -14 9 -5 539 10
557 6 7 13 51 17 100 4 48 11 90 15 92 5 3 12 34 15 70 4 36 11 68 16 71 5 2
11 27 15 55 4 27 10 52 15 54 4 3 11 26 15 50 3 25 10 45 14 45 4 0 10 17 14
39 3 21 13 51 21 67 8 16 15 35 15 42 0 7 7 24 16 37 9 13 17 30 18 37 9 42
127 282 147 298 4 3 10 16 14 30 4 14 21 41 36 61 16 20 29 41 29 46 0 6 9 18
20 28 11 10 20 23 20 30 0 7 9 20 20 30 11 10 20 22 20 28 0 5 11 18 25 29 14
11 25 25 25 32 0 7 14 25 30 41 17 16 30 34 30 40 0 6 27 37 61 70 33 33 67
72 75 88 8 15 19 27 25 27 6 0 56 43 112 95 56 52 105 95 110 95 5 0 35 23 67
50 32 28 61 50 65 50 4 0 24 14 45 30 21 17 42 30 48 30 6 0 12 4 14 9 4 12
91 60 103 57 6 -1 11 -22 13 -45z m2817 -643 c57 -45 265 -260 265 -274 0 -8
6 -17 14 -20 8 -3 17 -13 20 -22 8 -21 24 -47 54 -89 12 -17 22 -35 22 -41 0
-5 6 -15 14 -21 11 -9 77 -132 82 -151 7 -34 18 -60 24 -60 5 0 12 -15 15 -32
4 -18 11 -37 15 -43 4 -5 16 -35 26 -65 10 -30 22 -57 25 -60 3 -3 9 -26 13
-52 4 -26 11 -50 17 -53 5 -4 9 -19 9 -35 0 -16 5 -32 10 -35 6 -3 10 -13 10
-22 0 -12 -7 -14 -37 -8 -21 4 -42 10 -48 15 -5 4 -36 11 -68 15 -31 4 -60 11
-62 15 -3 5 -34 12 -70 15 -36 4 -67 11 -70 15 -3 5 -39 11 -80 15 -42 4 -77
11 -80 15 -3 5 -48 11 -100 15 -52 4 -97 11 -100 15 -3 4 -59 11 -125 15 -66
4 -123 11 -126 16 -3 5 -43 9 -90 9 -52 0 -84 4 -84 11 0 5 4 8 8 5 18 -11 73
36 94 79 22 44 22 47 8 217 -7 95 -16 220 -19 278 l-6 105 -30 0 -30 0 -7
-124 c-12 -206 -34 -281 -85 -289 -50 -8 -71 72 -76 296 l-3 127 -30 0 -29 0
2 -166 c2 -196 10 -236 58 -278 49 -43 101 -43 149 -1 42 37 48 31 49 -59 1
-86 -28 -141 -74 -141 -39 0 -69 32 -69 74 0 37 -19 51 -53 40 -16 -5 -18 -12
-13 -48 8 -53 34 -88 77 -103 32 -11 29 -12 -43 -12 -43 -1 -80 4 -83 9 -4 7
-55 8 -150 4 -108 -5 -148 -4 -159 5 -12 10 -114 11 -461 5 -245 -4 -448 -11
-451 -15 -3 -5 -67 -9 -142 -10 -75 0 -177 -4 -227 -9 -49 -5 -139 -12 -198
-16 -59 -4 -110 -11 -113 -16 -3 -4 -32 -8 -64 -8 -32 0 -61 -4 -64 -9 -3 -4
-55 -12 -116 -16 -60 -3 -112 -11 -116 -16 -3 -5 -25 -9 -49 -9 -24 0 -46 -4
-49 -9 -3 -5 -37 -12 -76 -16 -39 -4 -73 -11 -76 -16 -3 -5 -20 -9 -38 -9 -18
0 -36 -3 -40 -7 -4 -5 -17 -9 -29 -10 -58 -6 -97 -16 -97 -24 0 -5 -13 -9 -30
-9 -25 0 -30 4 -30 24 0 14 4 27 9 30 4 3 11 26 14 51 6 43 10 53 36 103 6 13
9 27 6 32 -3 5 -1 11 5 15 5 3 10 16 10 28 0 12 7 31 15 41 8 11 15 30 15 43
0 13 5 23 10 23 6 0 10 5 10 11 0 17 95 205 111 219 3 3 9 12 12 20 4 8 16 29
27 45 11 17 24 40 30 53 5 12 14 22 20 22 5 0 10 6 10 13 0 7 18 31 40 52 22
21 40 44 40 50 0 12 111 125 123 125 5 0 20 14 34 30 13 17 30 30 36 30 6 0
18 7 27 15 15 14 174 17 1326 29 720 7 1350 14 1400 15 80 1 94 -2 119 -21z
m-1060 -968 c4 -6 61 -7 150 -3 94 4 149 2 157 -4 7 -6 94 -14 193 -18 99 -4
185 -11 192 -17 7 -5 34 -9 60 -7 26 1 55 0 63 -4 18 -7 117 -16 178 -16 24 0
49 -4 55 -9 7 -5 47 -13 89 -17 43 -4 80 -10 83 -15 2 -4 37 -11 77 -15 40 -3
78 -10 83 -15 6 -4 33 -11 60 -15 28 -4 55 -10 60 -15 6 -4 31 -11 57 -14 26
-4 50 -11 53 -17 4 -5 17 -9 30 -9 13 0 27 -5 30 -10 4 -6 11 -8 16 -4 21 13
39 -19 39 -70 0 -29 5 -57 10 -62 13 -13 31 -515 19 -529 -5 -5 -9 -29 -9 -55
0 -25 -3 -74 -6 -110 -6 -58 -10 -67 -32 -78 -14 -7 -32 -12 -39 -12 -7 0 -13
-4 -13 -9 0 -5 -20 -12 -45 -15 -24 -4 -47 -11 -50 -15 -2 -5 -29 -12 -60 -16
-30 -3 -57 -11 -60 -16 -4 -5 -21 -9 -40 -9 -19 0 -36 -4 -40 -9 -3 -5 -41
-13 -85 -17 -44 -3 -83 -11 -86 -15 -3 -5 -25 -9 -49 -9 -24 0 -46 -4 -49 -9
-3 -5 -53 -12 -111 -16 -58 -4 -105 -11 -105 -16 0 -5 -31 -9 -68 -9 -38 0
-72 -3 -76 -7 -10 -10 -306 -32 -516 -39 -91 -2 -174 -9 -185 -14 -30 -13
-825 -23 -825 -10 0 7 -53 10 -159 10 -88 -1 -164 0 -168 3 -4 2 -89 8 -188
12 -99 4 -184 10 -190 15 -5 4 -62 11 -125 14 -63 4 -119 11 -125 16 -5 4 -54
11 -107 15 -54 4 -100 10 -103 15 -2 4 -41 11 -85 14 -44 4 -82 11 -85 15 -2
5 -33 12 -67 15 -35 4 -67 11 -73 16 -5 4 -31 11 -57 14 -26 4 -50 11 -53 15
-2 5 -21 12 -40 15 -34 7 -35 8 -35 56 0 27 -4 52 -10 55 -5 3 -10 37 -10 75
0 38 -4 72 -10 75 -15 9 -13 392 1 401 8 4 10 27 6 65 -3 33 -1 62 4 65 5 3 9
28 9 55 0 59 23 109 50 109 10 0 21 4 25 9 3 6 13 10 23 10 35 0 102 14 102
22 0 4 29 11 65 14 36 4 68 11 71 16 3 5 23 9 44 9 21 0 41 4 45 9 3 5 41 13
85 17 44 3 80 11 80 15 0 5 24 9 54 9 30 0 57 4 60 9 3 5 58 12 121 16 63 4
118 11 121 16 3 5 43 9 89 9 46 0 87 5 90 10 3 6 35 10 71 10 36 0 170 7 297
15 303 20 331 21 674 23 180 1 294 -2 298 -8z m1697 -1293 c-5 -7 -13 -33 -16
-59 -4 -26 -11 -50 -15 -53 -5 -2 -11 -27 -15 -54 -4 -28 -11 -53 -16 -56 -6
-3 -10 -14 -10 -23 0 -9 -6 -29 -14 -43 -7 -14 -16 -38 -20 -54 -4 -16 -16
-41 -27 -56 -10 -15 -19 -33 -19 -39 0 -14 -59 -134 -95 -195 -13 -22 -27 -47
-31 -55 -6 -13 -31 -46 -64 -87 -6 -7 -10 -16 -10 -21 0 -4 -13 -21 -30 -37
-16 -16 -30 -34 -30 -41 0 -7 -52 -61 -115 -122 l-115 -109 -523 -6 c-287 -4
-912 -10 -1388 -14 l-866 -6 -21 21 c-12 12 -26 22 -30 22 -5 0 -21 14 -37 30
-16 16 -33 30 -39 30 -12 0 -126 111 -126 122 0 5 -18 24 -40 44 -22 20 -40
40 -40 46 0 10 -40 69 -53 79 -10 7 -29 40 -50 85 -8 17 -20 35 -26 38 -6 4
-27 42 -48 84 -20 42 -40 79 -44 82 -4 3 -11 18 -15 34 -4 17 -13 41 -20 55
-8 14 -14 32 -14 39 0 7 -4 21 -10 32 -24 49 -28 58 -35 90 -4 19 -11 40 -15
45 -4 6 -11 34 -15 62 -4 29 -11 55 -16 59 -5 3 -9 14 -9 26 0 16 3 18 13 10
7 -6 32 -14 55 -18 23 -4 45 -10 47 -15 3 -4 37 -11 75 -15 39 -3 70 -10 70
-14 0 -4 37 -11 83 -15 45 -4 87 -11 92 -15 6 -4 48 -11 95 -14 47 -4 94 -11
105 -16 27 -12 243 -32 333 -30 41 1 79 -3 86 -9 7 -6 120 -13 272 -17 142 -4
264 -10 269 -14 14 -10 895 1 895 11 0 5 74 9 164 9 99 0 167 4 171 10 3 6 48
10 99 10 51 0 96 3 99 6 3 4 26 7 49 8 119 6 259 20 264 27 3 5 30 9 60 9 30
0 54 4 54 9 0 5 45 12 100 16 55 3 100 11 100 16 0 5 20 9 44 9 25 0 47 4 50
9 4 5 40 12 81 16 41 4 75 11 75 16 0 5 13 9 29 9 17 0 33 5 36 10 4 6 11 8
16 5 9 -6 80 15 89 26 3 4 16 9 30 10 20 3 26 -1 28 -19 2 -13 -1 -29 -6 -35z
m-672 -1235 c0 -23 -4 -43 -9 -46 -5 -3 -12 -46 -16 -96 -4 -50 -11 -92 -15
-95 -4 -3 -11 -48 -15 -100 -4 -52 -11 -98 -17 -101 -5 -3 -8 -23 -7 -45 2
-21 0 -41 -4 -45 -4 -4 -7 -25 -7 -46 0 -25 -5 -41 -15 -44 -8 -4 -15 -12 -15
-19 0 -7 -35 -29 -77 -50 -43 -20 -91 -43 -106 -51 -16 -8 -37 -14 -48 -14
-10 0 -19 -4 -19 -9 0 -5 -14 -13 -32 -16 -18 -4 -39 -11 -48 -16 -26 -13 -55
-22 -67 -20 -6 1 -14 -3 -18 -9 -3 -5 -17 -10 -31 -10 -13 0 -24 -4 -24 -9 0
-5 -22 -11 -50 -15 -27 -4 -52 -11 -55 -16 -3 -6 -19 -10 -36 -10 -16 0 -38
-5 -49 -12 -16 -10 -23 -9 -44 11 -19 18 -26 37 -32 87 -3 35 -10 67 -15 70
-5 3 -9 25 -9 49 0 24 -4 46 -9 49 -5 3 -12 36 -16 73 -4 38 -10 73 -15 78 -4
6 -11 45 -15 87 -4 43 -11 80 -16 84 -5 3 -9 20 -9 39 0 19 -4 36 -9 39 -4 3
-11 40 -15 83 -4 43 -11 82 -15 88 -5 5 -11 28 -13 50 l-5 40 508 4 509 3 0
-40z m-1710 -1 c0 -17 -5 -33 -10 -36 -6 -3 -7 -17 -4 -31 3 -13 2 -30 -4 -37
-6 -6 -14 -46 -17 -87 -4 -41 -11 -79 -15 -85 -4 -5 -11 -43 -15 -83 -4 -39
-11 -74 -15 -77 -5 -3 -11 -39 -15 -80 -4 -41 -11 -75 -15 -75 -4 0 -10 -37
-14 -82 -4 -45 -11 -87 -15 -92 -5 -6 -12 -38 -16 -71 -4 -33 -11 -65 -17 -72
-9 -12 -73 -7 -93 7 -5 4 -32 10 -59 14 -27 3 -54 10 -60 15 -6 5 -32 12 -58
15 -26 4 -50 11 -53 17 -4 5 -17 9 -30 9 -13 0 -26 4 -29 8 -3 5 -30 14 -61
21 -30 7 -55 17 -55 22 0 5 -10 9 -22 9 -13 0 -32 7 -42 15 -11 8 -26 15 -33
15 -7 0 -43 14 -78 32 -56 27 -65 35 -65 58 0 15 -7 33 -15 40 -11 9 -15 32
-15 81 0 37 -4 71 -10 74 -5 3 -10 39 -10 79 0 40 -3 76 -7 79 -3 4 -7 19 -8
34 -10 149 -17 242 -21 260 l-4 23 402 3 c222 1 447 3 501 5 l97 2 0 -29z
m604 -2 c3 -17 6 -44 6 -60 0 -16 5 -29 10 -29 6 0 10 -17 10 -38 0 -21 3 -42
7 -46 4 -4 6 -22 5 -41 -2 -18 1 -36 7 -40 6 -3 11 -24 11 -45 0 -21 4 -41 9
-45 5 -3 13 -41 17 -85 3 -44 11 -83 15 -86 5 -3 9 -20 9 -39 0 -19 4 -36 9
-40 5 -3 13 -41 17 -85 3 -44 11 -83 15 -86 5 -3 9 -20 9 -39 0 -19 5 -37 10
-40 8 -5 7 -11 -1 -21 -6 -8 -8 -25 -5 -39 6 -24 4 -25 -39 -25 -25 0 -45 -3
-45 -7 0 -10 0 -10 -288 -20 -134 -4 -246 -5 -249 0 -2 4 -37 7 -78 7 -42 0
-77 5 -80 11 -4 6 -13 8 -20 5 -16 -6 -49 40 -35 49 6 3 10 24 10 45 0 21 5
42 11 45 6 4 7 19 4 35 -3 16 -2 31 4 35 6 3 11 26 11 50 0 24 5 47 10 50 6 3
7 17 4 31 -3 13 -2 30 4 37 5 6 13 45 17 85 4 39 11 74 15 77 5 3 11 40 15 83
4 42 11 82 15 87 4 6 11 43 15 83 4 39 11 75 16 78 5 3 9 20 9 38 0 17 5 37
12 44 9 9 79 12 254 12 l242 0 6 -31z"/>
<path d="M7690 10715 c-7 -8 -9 -22 -6 -31 3 -8 6 -122 6 -251 1 -255 4 -271
56 -312 39 -30 92 -28 132 7 25 21 35 40 43 84 14 68 8 88 -25 88 -25 0 -36
-16 -36 -56 0 -14 -7 -40 -14 -59 -29 -67 -83 -32 -86 55 -1 25 -1 104 -1 176
l1 132 58 8 c40 6 57 13 57 24 0 11 -14 16 -56 18 -63 3 -69 10 -69 83 0 24
-5 39 -16 43 -23 9 -30 8 -44 -9z"/>
<path d="M6913 10711 c-61 -3 -115 -10 -120 -14 -8 -8 -21 -266 -26 -497 l-2
-125 30 0 30 0 2 85 c2 47 6 117 10 155 l8 70 80 0 c88 0 113 8 94 31 -8 10
-35 14 -90 14 l-79 0 0 114 0 113 83 6 c45 4 107 7 137 7 62 0 86 11 77 34 -7
17 -17 18 -234 7z"/>
<path d="M8374 10651 c-33 -14 -54 -51 -54 -93 0 -32 5 -41 33 -58 17 -11 39
-20 48 -20 9 0 29 -12 44 -27 81 -81 87 -226 10 -261 -45 -21 -68 18 -69 113
-1 38 -3 40 -31 40 -29 0 -30 -2 -33 -47 -2 -26 1 -62 6 -80 l9 -33 -41 0
c-39 0 -41 2 -58 47 -10 27 -19 91 -23 159 -8 152 -20 196 -59 220 -45 27 -92
25 -121 -7 -47 -51 -70 -259 -41 -368 24 -87 46 -110 100 -103 28 4 48 14 62
32 l21 27 31 -31 c35 -36 64 -39 109 -12 27 17 34 18 50 6 25 -19 88 -19 130
1 98 47 110 176 26 296 -20 30 -44 48 -86 67 -53 23 -58 27 -52 50 9 37 22 48
42 35 9 -6 20 -18 25 -27 4 -9 12 -25 17 -34 4 -10 19 -18 32 -18 39 0 38 46
-3 90 -35 38 -85 52 -124 36z m-241 -176 c11 -139 2 -234 -27 -270 l-23 -29
-16 49 c-20 57 -22 182 -6 271 12 65 24 86 48 82 13 -3 18 -24 24 -103z"/>
<path d="M7515 10572 c-16 -10 -37 -17 -45 -15 -39 8 -43 -9 -48 -197 -5 -215
-2 -232 36 -228 l27 3 7 139 c10 189 38 280 82 263 23 -9 39 -136 32 -255 -8
-129 0 -167 35 -167 23 0 24 2 31 105 10 158 -8 317 -40 353 -20 22 -78 22
-117 -1z"/>
<path d="M7147 10549 c-25 -15 -44 -63 -62 -157 -28 -147 -14 -226 46 -257 47
-25 94 -23 123 4 23 22 25 22 49 6 30 -19 95 -12 104 12 7 18 -16 34 -39 27
-10 -3 -21 2 -27 13 -14 26 -31 162 -31 246 0 40 -4 78 -8 85 -18 28 -120 41
-155 21z m86 -154 c9 -125 3 -185 -21 -215 -52 -64 -91 64 -62 200 25 115 32
131 54 128 19 -3 22 -12 29 -113z"/>
<path d="M8687 8303 c-10 -9 -8 -90 3 -143 5 -25 12 -108 16 -185 7 -158 24
-237 56 -260 25 -17 70 -20 97 -5 27 14 52 86 58 168 l6 72 -27 0 c-31 0 -46
-29 -47 -88 0 -45 -20 -104 -36 -109 -18 -6 -30 58 -38 196 -8 151 -29 332
-39 349 -8 13 -38 16 -49 5z"/>
<path d="M8411 8291 c-11 -7 -12 -30 -7 -112 28 -429 34 -459 106 -480 36 -11
43 -10 68 8 30 22 55 101 45 140 -4 19 -11 23 -32 21 -23 -3 -27 -9 -32 -50
-4 -25 -11 -54 -17 -64 -9 -16 -11 -15 -25 7 -20 32 -25 69 -38 309 -12 226
-20 251 -68 221z"/>
<path d="M7754 8249 c-9 -16 -6 -91 8 -184 6 -38 13 -140 17 -225 l6 -155 77
-9 c96 -10 146 8 165 64 27 76 -14 309 -64 362 -34 36 -76 45 -109 23 -14 -9
-27 -15 -28 -13 -2 2 -7 35 -12 73 -8 61 -12 70 -31 73 -11 2 -25 -3 -29 -9z
m188 -253 c16 -51 22 -97 23 -164 0 -101 -5 -112 -57 -112 -23 0 -28 4 -28 24
0 13 -6 26 -14 29 -15 6 -15 17 4 210 5 48 12 92 15 98 13 20 35 -13 57 -85z"/>
<path d="M7494 8228 c-5 -7 -7 -43 -5 -79 2 -42 -2 -74 -10 -88 -12 -18 -11
-22 5 -34 16 -12 18 -33 22 -186 2 -106 8 -179 15 -187 22 -27 75 -36 114 -20
46 20 62 59 65 156 3 105 4 102 -27 98 -27 -3 -28 -5 -38 -100 -11 -102 -23
-130 -49 -109 -11 10 -15 44 -15 169 -1 86 -2 166 -4 177 -2 15 7 21 41 29 31
6 42 13 40 25 -3 12 -15 16 -46 16 l-42 0 -1 40 c-2 71 -12 100 -36 103 -11 2
-25 -3 -29 -10z"/>
<path d="M6976 8198 c-20 -28 -20 -37 -2 -57 17 -19 43 -172 51 -301 4 -67 2
-91 -5 -80 -22 32 -115 188 -154 259 -68 123 -132 177 -165 138 -8 -10 -6 -68
6 -218 9 -112 17 -233 17 -269 l1 -65 30 0 c40 0 44 27 28 195 -7 74 -12 162
-10 195 l2 60 19 -39 c10 -22 35 -65 56 -95 20 -31 61 -98 89 -148 64 -113
110 -166 143 -161 17 2 24 11 26 32 5 38 -24 318 -43 421 -8 44 -16 96 -17
115 -3 30 -7 35 -30 38 -18 2 -31 -4 -42 -20z"/>
<path d="M8205 8145 c-5 -2 -27 -6 -48 -10 -31 -5 -41 -13 -59 -48 -19 -35
-22 -59 -22 -147 -1 -89 3 -113 23 -158 33 -73 66 -88 124 -57 26 13 31 13 50
0 25 -18 70 -19 98 -4 16 8 18 13 8 25 -6 8 -22 14 -34 14 -12 0 -27 6 -33 13
-18 21 -42 238 -29 258 9 14 8 28 -2 56 -21 59 -37 71 -76 58z m-8 -186 c3
-129 -2 -189 -16 -189 -34 0 -55 217 -27 284 28 68 41 41 43 -95z"/>
<path d="M7224 8085 c-9 -14 -20 -56 -24 -93 -8 -75 11 -266 29 -301 26 -48
106 -75 152 -51 45 24 86 164 55 189 -29 24 -53 5 -59 -47 -20 -168 -107 -114
-107 66 l0 62 34 0 c45 0 85 15 93 36 9 25 -15 91 -48 129 -26 29 -38 35 -70
35 -30 0 -42 -5 -55 -25z"/>
</g>
</svg>
